<svg xmlns="http://www.w3.org/2000/svg" version="1.1" xmlns:xlink="http://www.w3.org/1999/xlink" xmlns:svgjs="http://svgjs.dev/svgjs" width="1000" height="258" viewBox="0 0 1000 258"><g transform="matrix(1,0,0,1,0.08815222364523834,-1.1103363339026942)"><svg viewBox="0 0 213 55" data-background-color="#ffffff" preserveAspectRatio="xMidYMid meet" height="258" width="1000" xmlns="http://www.w3.org/2000/svg" xmlns:xlink="http://www.w3.org/1999/xlink"><g id="tight-bounds" transform="matrix(1,0,0,1,-0.01877642363643872,0.2367003939354504)"><svg viewBox="0 0 213.0375528472729 54.5266" height="54.5266" width="213.0375528472729"><g><svg viewBox="0 0 213.0375528472729 54.5266" height="54.5266" width="213.0375528472729"><g><svg viewBox="0 0 213.0375528472729 54.5266" height="54.5266" width="213.0375528472729"><g id="textblocktransform"><svg viewBox="0 0 213.0375528472729 54.5266" height="54.5266" width="213.0375528472729" id="textblock"><g><svg viewBox="0 0 213.0375528472729 54.5266" height="54.5266" width="213.0375528472729"><g><svg><g></g><g></g></svg></g><g><svg><g><svg></svg></g><g></g></svg></g><g id="text-0"><svg viewBox="0 0 213.0375528472729 54.5266" height="54.5266" width="213.0375528472729"><g transform="matrix(1,0,0,1,0,10.4133)"><svg width="97.05000000000003" viewBox="3.6500000953674316 -33.70000076293945 97.04999542236328 33.70000076293945" height="33.7" data-palette-color="url(#be9320d9-e4d3-459f-80ae-d7f7f33e139a)"></svg></g><g><svg xmlns="http://www.w3.org/2000/svg" xmlns:xlink="http://www.w3.org/1999/xlink" version="1.1" x="109.92340000000003" y="0" viewBox="7.51999568939209 3.9290013313293457 83.88200378417969 92.13801574707031" enable-background="new 0 0 100 100" xml:space="preserve" height="54.5266" width="49.64075284727286" class="icon-s-0" data-fill-palette-color="accent" id="s-0"><g fill="#000000" data-fill-palette-color="accent"><path fill-rule="evenodd" clip-rule="evenodd" d="M45.883 4.389c0.752 0.883 1.503 1.766 2.423 2.845-0.443 0.063-0.75 0.045-1.002 0.155-0.572 0.252-1.116 0.567-1.672 0.855 0.456 0.537 0.807 1.281 1.386 1.568 1.673 0.831 1.979 1.608 1.037 3.692-0.293-0.112-0.6-0.222-0.899-0.345-0.213-0.088-0.418-0.195-1.121-0.526 1.159 1.875 2.113 3.222 2.857 4.677 0.795 1.556 1.163 3.061-0.687 4.398-0.639 0.462-0.965 1.717-0.974 2.614-0.019 1.716 0.108 3.479 0.502 5.144 0.849 3.587-0.207 4.963-3.823 5.056-3.015 0.078-5.996 0.548-8.556 2.293 0.039 0.195 0.077 0.389 0.116 0.583 1.588-0.255 3.171-0.596 4.771-0.743 1.361-0.125 2.995-0.491 4.053 0.085 1.39 0.757 2.888 2.162 3.334 3.6 0.602 1.942-0.207 4.042-2.064 5.303-0.494 0.336-1.352 0.22-2.036 0.18-1.699-0.097-3.418-0.52-5.08-0.348-2.202 0.228-4.333 0.414-6.251-0.838-3.839-2.506-4.309-6.377-1.207-9.763 1.083-1.182 2.306-2.236 3.466-3.35-0.121-0.167-0.24-0.336-0.359-0.504-0.82 0.403-1.633 0.821-2.463 1.205-1.737 0.803-2.248 0.443-2.341-1.418-0.183-3.655 2.064-5.728 4.756-7.544 0.662-0.446 1.317-0.901 1.978-1.602-2.262 0.671-3.345-0.125-3.827-2.259-0.504-2.225-0.16-3.886 1.842-5.035 1.529-0.875 3.293-1.339 4.866-1.953-0.186-0.658-0.826-1.699-0.534-2.219 0.338-0.607 1.51-0.724 2.287-1.119 0.888-0.452 1.759-0.95 2.582-1.51 0.075-0.052-0.331-1.032-0.382-1.021-0.963 0.226-1.973 0.408-2.833 0.864-1.028 0.544-1.919 1.343-2.882 2.013-0.08 0.056-0.263-0.037-0.504-0.08-0.14-1.478 0.204-2.692 1.72-3.336 1.388-0.589 2.781-1.169 4.171-1.753C43.65 4.3 44.767 4.345 45.883 4.389z" fill="#000000" data-fill-palette-color="accent"></path><path fill-rule="evenodd" clip-rule="evenodd" d="M7.62 49.386c0.396-0.72 0.807-1.433 1.188-2.162 0.867-1.655 1.982-2.301 3.907-1.48 0.724 0.308 1.807-0.092 2.685-0.328 0.784-0.212 1.51-0.641 2.38-1.024 0.03 1.132 0.055 2.077 0.079 3.022 0.191 0.164 0.381 0.328 0.571 0.492 0.203-0.407 0.342-0.862 0.618-1.211 0.604-0.763 1.22-1.529 1.927-2.192 3.038-2.854 5.983-2.755 8.454 0.511 1.198 1.583 2.358 2.236 4.429 2.156 2.888-0.11 5.885 0.041 8.681 0.714 4.79 1.152 6.346 4.431 4.83 9.409-1.532-0.668-3.055-1.335-4.576-1.999-0.093 0.163-0.185 0.327-0.277 0.491 1.166 0.831 2.409 1.575 3.47 2.521 0.889 0.792 2.074 1.74 2.238 2.763 0.431 2.688 0.724 5.493 0.417 8.178-0.285 2.49-2.689 3.12-4.732 1.597-0.387-0.291-0.785-0.614-1.051-1.008-1.196-1.77-2.57-3.179-4.895-3.393-0.506-0.048-1.029-0.804-1.393-1.336-1.997-2.919-3.842-5.949-5.974-8.763-0.626-0.824-1.976-1.233-3.075-1.533-1.799-0.49-3.681-0.67-5.499-1.1-2.564-0.607-4.951-1.036-7.658 0.036-3.599 1.423-4.875 0.803-6.844-1.852C7.553 51.059 7.586 50.223 7.62 49.386z" fill="#000000" data-fill-palette-color="accent"></path><path fill-rule="evenodd" clip-rule="evenodd" d="M40.966 95.985c-1.738-0.683-3.458-1.419-5.221-2.033-1.727-0.601-3.495-1.079-5.771-1.769 2.829-0.823 5-0.135 7.154 0.454 1.334 0.369 2.607 0.956 3.926 1.392 1.987 0.653 4.058-0.056 5.695-2.141-0.878 0.204-1.433 0.369-2.002 0.453-1.082 0.16-2.176 0.411-3.255 0.365-1.377-0.06-3.252-0.243-3.176-1.912 0.045-1.009 1.456-2.332 2.561-2.835 2.055-0.935 4.334-1.37 6.83-2.104-0.931 4.028-4.522 3.08-6.933 4.063 0.035 0.183 0.071 0.369 0.108 0.552 0.703-0.096 1.433-0.104 2.105-0.302 2.433-0.72 4.755-0.24 5.289 1.152 0.436 1.139-1.519 3.441-3.528 4.155-0.562 0.198-1.127 0.395-1.69 0.592C42.361 96.041 41.664 96.012 40.966 95.985z" fill="#000000" data-fill-palette-color="accent"></path><path fill-rule="evenodd" clip-rule="evenodd" d="M31.514 79.28c0.443 0.674 0.886 1.349 1.327 2.021-3.564 1.453-5.886-0.459-7.795-6.243-0.14 0.806-0.279 1.609-0.443 2.55-2.403 0.332-5.018 0.311-6.78-1.455-1.547-1.55-2.354-3.838-3.457-5.745-0.141 0.263-0.447 0.841-0.748 1.403-2.133-0.275-3.746-2.416-4.514-6.472 2.508 2.785 5.266 3.81 8.774 3.538-0.507-0.483-0.85-1.013-1.333-1.229-1.393-0.625-2.805-1.273-4.279-1.627-1.583-0.379-2.173-1.285-2.267-2.989 2.979-0.28 5.416 0.78 7.812 2.265 2.743 1.7 2.33 4.564 2.563 7.227 0.188-0.015 0.376-0.029 0.565-0.044 0.28-0.602 0.458-1.286 0.865-1.788 0.56-0.694 1.312-1.77 1.941-1.742 0.925 0.037 1.976 0.747 2.682 1.46 0.812 0.821 1.197 2.054 1.972 2.925 0.674 0.757 1.554 1.457 2.484 1.832 2.462 0.993 4.989 1.836 7.52 2.642 0.553 0.177 1.233-0.046 1.855-0.461-1.159-0.463-2.319-0.925-3.595-1.435 0.709-1.043 1.207-1.777 1.971-2.902-0.875 0.3-1.37 0.418-1.815 0.635-5.142 2.483-9.477-0.36-9.374-6.17 0.022-1.223 0.093-2.447 0.143-3.672-0.23-0.034-0.459-0.069-0.688-0.104-0.13 0.157-0.298 0.297-0.383 0.477-0.525 1.072 0.151 3.028-1.858 2.997-2.079-0.033-4.372-0.19-5.539-2.249-0.977-1.725-1.504-3.705-2.233-5.57-0.11-0.282-0.229-0.563-0.596-1.46-0.354 1.674-0.574 2.714-0.792 3.74-4.106 0.804-6.614-0.518-7.318-3.829-0.374-1.761 0.141-2.239 1.966-2.328 1.501-0.073 3.039-0.297 4.466-0.749 2.74-0.869 6.024-0.521 9.809 1.328-0.546 0.771-1.095 1.548-1.667 2.357 0.359 0.172 0.436 0.24 0.472 0.224 4.64-2.235 6.841-1.386 8.905 3.37 1.231 2.84 3.104 5.05 6.12 6.188 0.854 0.324 1.612 1.002 2.301 1.638 1.697 1.574 2.995 3.71 5.845 3.465 0.366-0.032 1.15 1.121 1.208 1.773 0.306 3.463-1.972 6.218-5.654 7.123-3.078 0.756-5.581-0.345-7.88-2.287-0.606-0.514-1.352-0.867-2.035-1.294C31.862 78.834 31.688 79.058 31.514 79.28z" fill="#000000" data-fill-palette-color="accent"></path><path fill-rule="evenodd" clip-rule="evenodd" d="M35.096 6.513c0.163 1.768 0.296 3.208 0.455 4.914-0.096 0.063-0.468 0.392-0.901 0.573-3.447 1.436-4.414 4.32-4.178 7.652 0.144 2.025-0.154 3.546-1.711 5.019-2.011 1.901-2.298 6.036-0.976 8.59 0.242 0.467 0.401 0.979 0.721 1.774-1.188-0.225-2.063-0.391-3.082-0.583 2.651 3.815 2.661 3.851 1.93 6.614-2.325-1.246-4.507-1.137-6.707 0.434-2.12 1.514-4.451 2.487-7.191 2.395-1.201-0.04-2.278 0.077-2.687-1.284-0.466-1.55-0.794-3.129 0.637-5.056 0.415 1.667 0.698 2.808 1.063 4.268 1.176-1.479 0.425-4.148 3.111-3.809 1.64 0.208 3.277 0.426 5.217 0.678-1.42-1.725-3.23-1.779-4.837-1.707-1.579 0.07-2.202-0.509-2.409-1.875-0.104-0.685-0.177-1.384-0.167-2.074 0.025-1.998 0.546-3.942 2.605-4.563 1.936-0.584 3.149 0.921 4.259 2.347 0.699 0.899 1.586 1.653 2.389 2.473 0.164-0.143 0.328-0.285 0.493-0.427-0.368-0.479-0.697-0.995-1.108-1.434-1.667-1.784-2.203-3.845-1.435-6.158 0.569-1.71 1.672-2.781 3.634-2.935 1.824-0.142 3.802-0.237 4.626-2.596-1.724-0.332-3.823 1.768-4.957-0.587-1.157-2.403 1.995-2.773 2.623-4.924-1.229 0.773-2.167 1.366-3.106 1.958-0.109-0.092-0.218-0.185-0.325-0.277 0.399-0.523 0.688-1.287 1.218-1.533 3.711-1.725 6.345-4.861 9.597-7.176C34.169 7.005 34.481 6.863 35.096 6.513z" fill="#000000" data-fill-palette-color="accent"></path><path fill-rule="evenodd" clip-rule="evenodd" d="M10.341 72.3c2.201 0.928 3.693 2.126 5.013 3.879 1.886 2.5 4.995 2.884 7.952 2.979 1.05 0.034 1.571 0.205 2.088 1.182 1.41 2.67 3.616 3.445 6.707 2.937 1.51-0.249 3.145-0.279 4.637 0.02 4.04 0.812 7.929 1.363 10.843-2.717 0.157 0.105 0.315 0.212 0.473 0.316-0.061 0.643 0.082 1.418-0.232 1.891-0.436 0.656-1.134 1.328-1.86 1.57-3.743 1.255-7.486 2.563-11.315 3.486-3.888 0.938-7.312-0.785-9.533-4.096-0.457-0.681-1.36-1.311-2.157-1.475-5.393-1.103-9.857-3.418-12.205-8.735C10.615 73.229 10.536 72.896 10.341 72.3z" fill="#000000" data-fill-palette-color="accent"></path><path fill-rule="evenodd" clip-rule="evenodd" d="M17.837 82.649c0.205-0.044 0.274-0.073 0.341-0.07 3.158 0.206 5.621 1.382 7.669 4.042 1.146 1.487 3.435 2.095 5.181 3.079C27.112 91.166 21.481 88.214 17.837 82.649z" fill="#000000" data-fill-palette-color="accent"></path><path fill-rule="evenodd" clip-rule="evenodd" d="M21.735 18.937c0.104 0.89 0.403 1.579 0.202 2.056-0.723 1.708-1.477 3.438-2.513 4.96-0.425 0.625-1.6 0.737-2.435 1.082-0.173-0.672-0.687-1.505-0.458-1.987 0.809-1.713 1.799-3.358 2.88-4.917C19.752 19.639 20.594 19.497 21.735 18.937z" fill="#000000" data-fill-palette-color="accent"></path><path fill-rule="evenodd" clip-rule="evenodd" d="M54.38 3.97c-0.777 0.862-1.552 1.724-2.502 2.776 0.442 0.076 0.749 0.066 0.997 0.184 0.565 0.268 1.1 0.598 1.649 0.901-0.473 0.523-0.846 1.258-1.433 1.529-1.694 0.784-2.021 1.552-1.138 3.661 0.297-0.104 0.605-0.205 0.907-0.319 0.216-0.082 0.424-0.183 1.135-0.495-1.21 1.841-2.2 3.163-2.986 4.596-0.838 1.532-1.247 3.027 0.563 4.416 0.626 0.48 0.918 1.743 0.902 2.641-0.029 1.716-0.207 3.474-0.646 5.128-0.949 3.562 0.066 4.966 3.68 5.16 3.014 0.162 5.979 0.716 8.488 2.532-0.044 0.193-0.086 0.386-0.131 0.579-1.582-0.3-3.154-0.684-4.749-0.875-1.357-0.163-2.98-0.574-4.056-0.028-1.408 0.718-2.946 2.081-3.431 3.505-0.657 1.923 0.094 4.046 1.914 5.36 0.485 0.349 1.346 0.256 2.03 0.236 1.7-0.049 3.43-0.426 5.089-0.206 2.192 0.29 4.317 0.534 6.271-0.664 3.907-2.397 4.486-6.254 1.479-9.725-1.05-1.212-2.243-2.3-3.371-3.445 0.124-0.165 0.248-0.329 0.372-0.495 0.81 0.426 1.61 0.867 2.429 1.273 1.714 0.85 2.235 0.505 2.379-1.353 0.284-3.648-1.902-5.784-4.544-7.674-0.649-0.464-1.291-0.938-1.932-1.657 2.242 0.734 3.348-0.031 3.889-2.151 0.566-2.21 0.271-3.88-1.702-5.084-1.502-0.918-3.251-1.431-4.807-2.088 0.203-0.653 0.872-1.675 0.596-2.203-0.323-0.617-1.489-0.766-2.254-1.183-0.877-0.477-1.733-0.998-2.539-1.581-0.074-0.054 0.36-1.023 0.41-1.01 0.956 0.253 1.961 0.462 2.808 0.942 1.012 0.572 1.88 1.396 2.825 2.093 0.078 0.058 0.262-0.03 0.505-0.066 0.181-1.473-0.129-2.697-1.626-3.382-1.372-0.628-2.747-1.247-4.122-1.869C56.614 3.944 55.498 3.958 54.38 3.97z" fill="#000000" data-fill-palette-color="accent"></path><path fill-rule="evenodd" clip-rule="evenodd" d="M91.372 50.018c-0.376-0.731-0.767-1.455-1.127-2.194-0.82-1.678-1.916-2.355-3.863-1.588-0.732 0.287-1.804-0.143-2.675-0.403-0.778-0.234-1.492-0.683-2.351-1.091-0.061 1.131-0.113 2.074-0.164 3.019-0.194 0.158-0.391 0.318-0.584 0.475-0.191-0.412-0.319-0.872-0.585-1.228-0.582-0.779-1.178-1.562-1.864-2.246-2.955-2.938-5.904-2.919-8.466 0.275-1.242 1.548-2.419 2.169-4.486 2.032-2.884-0.192-5.883-0.124-8.697 0.471-4.819 1.019-6.468 4.25-5.091 9.271 1.55-0.627 3.091-1.249 4.629-1.872 0.089 0.168 0.176 0.333 0.264 0.5-1.187 0.798-2.451 1.506-3.539 2.423-0.91 0.767-2.121 1.682-2.314 2.699-0.505 2.676-0.877 5.472-0.645 8.164 0.216 2.497 2.6 3.194 4.686 1.728 0.396-0.279 0.803-0.593 1.079-0.979 1.246-1.735 2.657-3.104 4.988-3.255 0.504-0.033 1.051-0.772 1.43-1.296 2.075-2.863 4.006-5.839 6.215-8.591 0.648-0.809 2.01-1.18 3.116-1.447 1.812-0.441 3.698-0.566 5.527-0.946 2.58-0.536 4.978-0.897 7.653 0.249 3.558 1.524 4.853 0.939 6.894-1.657C91.392 51.693 91.382 50.855 91.372 50.018z" fill="#000000" data-fill-palette-color="accent"></path><path fill-rule="evenodd" clip-rule="evenodd" d="M56.737 95.668c1.757-0.634 3.498-1.322 5.276-1.885 1.742-0.555 3.524-0.982 5.818-1.61-2.806-0.899-4.996-0.272-7.164 0.257-1.344 0.33-2.633 0.882-3.964 1.28-2.005 0.599-4.055-0.167-5.635-2.298 0.872 0.228 1.423 0.41 1.989 0.509 1.078 0.188 2.163 0.471 3.243 0.456 1.38-0.021 3.261-0.15 3.23-1.824-0.019-1.009-1.391-2.372-2.482-2.905-2.026-0.991-4.294-1.489-6.767-2.292 0.816 4.051 4.436 3.205 6.815 4.254-0.039 0.185-0.082 0.368-0.121 0.551-0.702-0.115-1.43-0.145-2.099-0.361-2.41-0.788-4.744-0.375-5.318 1.006-0.467 1.125 1.421 3.479 3.411 4.249 0.556 0.216 1.114 0.428 1.673 0.64C55.343 95.686 56.04 95.677 56.737 95.668z" fill="#000000" data-fill-palette-color="accent"></path><path fill-rule="evenodd" clip-rule="evenodd" d="M66.651 79.233c-0.46 0.661-0.922 1.325-1.381 1.984 3.521 1.552 5.896-0.295 7.965-6.022 0.118 0.807 0.235 1.616 0.372 2.56 2.394 0.398 5.008 0.451 6.818-1.266 1.59-1.506 2.461-3.77 3.616-5.646 0.133 0.267 0.424 0.854 0.707 1.426 2.141-0.215 3.813-2.311 4.694-6.346-2.585 2.716-5.37 3.662-8.869 3.293 0.521-0.468 0.876-0.989 1.366-1.191 1.409-0.585 2.84-1.195 4.322-1.507 1.594-0.336 2.208-1.226 2.351-2.927-2.972-0.362-5.437 0.63-7.872 2.048-2.789 1.622-2.457 4.498-2.763 7.152-0.188-0.021-0.376-0.04-0.564-0.059-0.263-0.612-0.422-1.301-0.813-1.814-0.54-0.708-1.262-1.806-1.892-1.795-0.927 0.012-1.999 0.692-2.724 1.386-0.835 0.798-1.253 2.019-2.053 2.868-0.693 0.737-1.594 1.414-2.533 1.763-2.489 0.924-5.038 1.694-7.591 2.429-0.558 0.161-1.231-0.079-1.841-0.513 1.17-0.429 2.342-0.858 3.632-1.332-0.678-1.063-1.157-1.811-1.888-2.956 0.866 0.325 1.355 0.456 1.795 0.683 5.071 2.628 9.484-0.094 9.544-5.904 0.014-1.224-0.026-2.448-0.041-3.673 0.23-0.029 0.462-0.059 0.692-0.087 0.125 0.162 0.288 0.305 0.369 0.488 0.495 1.085-0.235 3.021 1.774 3.048 2.079 0.024 4.375-0.069 5.6-2.097 1.025-1.695 1.606-3.659 2.388-5.505 0.117-0.278 0.245-0.555 0.637-1.442 0.307 1.683 0.498 2.729 0.688 3.762 4.081 0.918 6.625-0.331 7.421-3.624 0.423-1.748-0.077-2.241-1.9-2.381-1.498-0.115-3.029-0.381-4.442-0.874-2.715-0.944-6.008-0.688-9.842 1.053 0.521 0.788 1.051 1.579 1.6 2.404-0.363 0.161-0.442 0.229-0.479 0.21-4.575-2.363-6.799-1.575-8.995 3.121-1.309 2.804-3.244 4.96-6.289 6.016-0.861 0.299-1.639 0.955-2.346 1.572-1.741 1.526-3.099 3.623-5.939 3.299-0.365-0.042-1.181 1.088-1.258 1.738-0.402 3.452 1.798 6.271 5.451 7.279 3.057 0.842 5.591-0.19 7.941-2.067 0.622-0.497 1.378-0.828 2.071-1.235C66.317 78.778 66.484 79.006 66.651 79.233z" fill="#000000" data-fill-palette-color="accent"></path><path fill-rule="evenodd" clip-rule="evenodd" d="M65.104 6.395c-0.212 1.763-0.385 3.198-0.591 4.9 0.093 0.064 0.456 0.404 0.886 0.597 3.405 1.532 4.291 4.442 3.961 7.765-0.198 2.021 0.056 3.55 1.571 5.064 1.957 1.958 2.129 6.098 0.736 8.615-0.256 0.46-0.429 0.967-0.771 1.754 1.193-0.193 2.073-0.334 3.099-0.499-2.759 3.74-2.77 3.775-2.114 6.558 2.357-1.182 4.535-1.012 6.691 0.62 2.074 1.573 4.381 2.611 7.12 2.596 1.202-0.006 2.277 0.14 2.724-1.209 0.508-1.536 0.88-3.105-0.498-5.072-0.459 1.656-0.774 2.787-1.178 4.237-1.136-1.512-0.312-4.159-3.007-3.895-1.644 0.161-3.286 0.333-5.232 0.53 1.467-1.684 3.28-1.687 4.883-1.57 1.575 0.114 2.215-0.448 2.461-1.809 0.122-0.682 0.215-1.378 0.226-2.069 0.03-1.998-0.438-3.955-2.477-4.633-1.919-0.638-3.176 0.833-4.322 2.228-0.727 0.879-1.634 1.609-2.458 2.405-0.162-0.146-0.322-0.293-0.48-0.44 0.38-0.47 0.724-0.975 1.146-1.403 1.716-1.736 2.31-3.781 1.605-6.115-0.52-1.725-1.594-2.826-3.55-3.034-1.819-0.194-3.795-0.343-4.552-2.725 1.732-0.282 3.772 1.875 4.972-0.447 1.222-2.37-1.918-2.829-2.484-4.998 1.206 0.809 2.129 1.426 3.05 2.044 0.111-0.089 0.223-0.179 0.332-0.268-0.384-0.534-0.651-1.306-1.174-1.567-3.661-1.828-6.207-5.035-9.394-7.441C66.016 6.913 65.707 6.761 65.104 6.395z" fill="#000000" data-fill-palette-color="accent"></path><path fill-rule="evenodd" clip-rule="evenodd" d="M88.014 72.849c-2.228 0.863-3.752 2.02-5.121 3.734-1.954 2.449-5.071 2.744-8.033 2.755-1.05 0.006-1.575 0.163-2.119 1.124-1.483 2.632-3.709 3.344-6.785 2.747-1.503-0.29-3.137-0.365-4.636-0.107-4.062 0.697-7.964 1.142-10.763-3.02-0.161 0.102-0.322 0.204-0.482 0.305 0.042 0.642-0.121 1.415 0.18 1.896 0.417 0.668 1.096 1.355 1.816 1.62 3.705 1.357 7.409 2.77 11.213 3.801 3.859 1.047 7.331-0.581 9.643-3.827 0.476-0.668 1.396-1.273 2.197-1.413 5.422-0.953 9.949-3.143 12.444-8.392C87.712 73.768 87.802 73.436 88.014 72.849z" fill="#000000" data-fill-palette-color="accent"></path><path fill-rule="evenodd" clip-rule="evenodd" d="M80.231 82.982c-0.205-0.049-0.272-0.081-0.34-0.078-3.163 0.116-5.657 1.223-7.78 3.824-1.186 1.455-3.49 1.998-5.265 2.937C70.722 91.238 76.434 88.445 80.231 82.982z" fill="#000000" data-fill-palette-color="accent"></path><path fill-rule="evenodd" clip-rule="evenodd" d="M78.113 19.187c-0.13 0.886-0.449 1.567-0.261 2.049 0.675 1.727 1.38 3.478 2.375 5.029 0.407 0.635 1.579 0.78 2.402 1.148 0.193-0.667 0.729-1.485 0.515-1.974-0.761-1.736-1.706-3.406-2.742-4.996C80.075 19.944 79.237 19.779 78.113 19.187z" fill="#000000" data-fill-palette-color="accent"></path></g></svg></g><g transform="matrix(1,0,0,1,172.43755284727288,10.4133)"><svg width="40.599999999999994" viewBox="1.5499999523162842 -33.70000076293945 40.60000228881836 33.70000076293945" height="33.7" data-palette-color="#374151"><path d="M11.65-14.25L11.65-14.25 11.1-12.55 21.9-12.55 21.35-14.25Q19.45-20.15 18.25-24.03 17.05-27.9 16.8-28.85L16.8-28.85 16.55-29.8Q16-27.45 11.65-14.25ZM9.7-8.25L7 0 1.55 0 13.2-33.7 19.95-33.7 31.45 0 25.95 0 23.3-8.25 9.7-8.25ZM42.15-33.7L42.15 0 37.05 0 37.05-33.7 42.15-33.7Z" opacity="1" transform="matrix(1,0,0,1,0,0)" fill="#374151" class="undefined-p-1" data-fill-palette-color="secondary"></path></svg></g></svg></g></svg></g></svg></g></svg></g><g></g></svg></g><defs></defs><mask id="86e192b8-1a50-42de-9b98-633557212e99"><g id="SvgjsG1144"><svg viewBox="0 0 213.0375528472729 54.5266" height="54.5266" width="213.0375528472729"><g><svg viewBox="0 0 213.0375528472729 54.5266" height="54.5266" width="213.0375528472729"><g><svg viewBox="0 0 213.0375528472729 54.5266" height="54.5266" width="213.0375528472729"><g id="SvgjsG1143"><svg viewBox="0 0 213.0375528472729 54.5266" height="54.5266" width="213.0375528472729" id="SvgjsSvg1142"><g><svg viewBox="0 0 213.0375528472729 54.5266" height="54.5266" width="213.0375528472729"><g><svg><g></g><g></g></svg></g><g><svg><g><svg></svg></g><g></g></svg></g><g id="SvgjsG1141"><svg viewBox="0 0 213.0375528472729 54.5266" height="54.5266" width="213.0375528472729"><g transform="matrix(1,0,0,1,0,10.4133)"><svg width="97.05000000000003" viewBox="3.6500000953674316 -33.70000076293945 97.04999542236328 33.70000076293945" height="33.7" data-palette-color="url(#be9320d9-e4d3-459f-80ae-d7f7f33e139a)"><path d="M13.6-11.95L13.6-11.95 8.8-11.95 8.8 0 3.65 0 3.65-33.7 13.3-33.7Q19.1-33.7 22.5-30.63 25.9-27.55 25.9-22.75 25.9-17.95 22.48-14.95 19.05-11.95 13.6-11.95ZM13.1-29.45L13.1-29.45 8.8-29.45 8.8-16.2 13.2-16.2Q16.85-16.2 18.78-18 20.7-19.8 20.7-22.75L20.7-22.75Q20.7-25.85 18.75-27.65 16.8-29.45 13.1-29.45ZM39.15-14.25L39.15-14.25 38.6-12.55 49.4-12.55 48.85-14.25Q46.95-20.15 45.75-24.03 44.55-27.9 44.3-28.85L44.3-28.85 44.05-29.8Q43.5-27.45 39.15-14.25ZM37.2-8.25L34.5 0 29.05 0 40.7-33.7 47.45-33.7 58.95 0 53.45 0 50.8-8.25 37.2-8.25ZM69.8-13.2L68.8 0 63.7 0 66.3-33.7 72.4-33.7 76.9-21.4Q78.09-18.25 79.3-14.73 80.5-11.2 81.09-9.25L81.09-9.25 81.75-7.3Q84.05-14.1 86.8-21.4L86.8-21.4 91.5-33.7 97.59-33.7 100.7 0 95.59 0 94.4-13.2 93.34-26.7Q91.09-20.35 88.45-13.2L88.45-13.2 83.75-0.65 79.7-0.65 75.15-13.2 70.59-26.5Q70.59-24.3 69.8-13.2L69.8-13.2Z" opacity="1" transform="matrix(1,0,0,1,0,0)" fill="white" class="undefined-p-0"></path></svg></g><g><svg xmlns="http://www.w3.org/2000/svg" xmlns:xlink="http://www.w3.org/1999/xlink" version="1.1" x="109.92340000000003" y="0" viewBox="7.51999568939209 3.9290013313293457 83.88200378417969 92.13801574707031" enable-background="new 0 0 100 100" xml:space="preserve" height="54.5266" width="49.64075284727286" class="icon-s-0" data-fill-palette-color="accent" id="SvgjsSvg1140"></svg></g><g transform="matrix(1,0,0,1,172.43755284727288,10.4133)"><svg width="40.599999999999994" viewBox="1.5499999523162842 -33.70000076293945 40.60000228881836 33.70000076293945" height="33.7" data-palette-color="#374151"></svg></g></svg></g></svg></g></svg></g></svg></g><g></g></svg></g><defs><mask></mask></defs></svg></g></mask><linearGradient x1="0" x2="1" y1="0.5" y2="0.5" id="be9320d9-e4d3-459f-80ae-d7f7f33e139a"><stop stop-color="#fff72e" offset="0"></stop><stop stop-color="#deae29" offset="1"></stop></linearGradient><rect width="213.0375518798828" height="54.5265998840332" fill="url(#be9320d9-e4d3-459f-80ae-d7f7f33e139a)" mask="url(#86e192b8-1a50-42de-9b98-633557212e99)" data-fill-palette-color="primary"></rect></svg><rect width="213.0375528472729" height="54.5266" fill="none" stroke="none" visibility="hidden"></rect></g></svg></g></svg>